<svg xmlns="http://www.w3.org/2000/svg" width="1200" height="630" viewBox="0 0 1200 630">
  <defs>
    <linearGradient id="bg" x1="0" y1="0" x2="1" y2="1">
      <stop offset="0" stop-color="#0a1a33"/>
      <stop offset="1" stop-color="#0033a0"/>
    </linearGradient>
  </defs>
  <rect width="1200" height="630" fill="url(#bg)"/>
  <g transform="translate(90,150)">
    <rect x="0" y="0" width="150" height="158" rx="28" fill="#fff"/>
    <g fill="#0033a0">
      <path d="M40 44 L118 38 L114 58 L38 64 Z"/>
      <path d="M37 68 L115 62 L111 82 L35 88 Z"/>
      <path d="M34 92 L112 86 L108 106 L32 112 Z"/>
      <path d="M31 116 L109 110 L105 130 L29 136 Z"/>
    </g>
  </g>
  <text x="290" y="250" fill="#ffffff" font-family="Segoe UI, Arial, sans-serif" font-size="96" font-weight="800">PM Quest</text>
  <text x="292" y="320" fill="#9db8e8" font-family="Segoe UI, Arial, sans-serif" font-size="40" font-weight="700" letter-spacing="2">PRODUCT MANAGEMENT · QUIZ</text>
  <text x="92" y="430" fill="#e7eef8" font-family="Segoe UI, Arial, sans-serif" font-size="42" font-weight="600">Treina PM · 1000+ perguntas · níveis · badges · leaderboard</text>
  <g transform="translate(92,480)">
    <rect x="0" y="0" width="230" height="70" rx="35" fill="#e2231a"/>
    <text x="115" y="47" fill="#fff" font-family="Segoe UI, Arial, sans-serif" font-size="32" font-weight="800" text-anchor="middle">▶ Jogar</text>
  </g>
</svg>
