<svg xmlns="http://www.w3.org/2000/svg" width="1200" height="630" viewBox="0 0 1200 630" font-family="Segoe UI, Arial, sans-serif">
  <defs>
    <linearGradient id="bgP" x1="0" y1="0" x2="1" y2="1"><stop offset="0" stop-color="#0a1730"/><stop offset="1" stop-color="#0b2c66"/></linearGradient>
    <linearGradient id="xpP" x1="0" y1="0" x2="1" y2="0"><stop offset="0" stop-color="#0033a0"/><stop offset="1" stop-color="#f2b705"/></linearGradient>
    <radialGradient id="glowP" cx="0.82" cy="0.16" r="0.55"><stop offset="0" stop-color="#2f6bd6" stop-opacity="0.4"/><stop offset="1" stop-color="#2f6bd6" stop-opacity="0"/></radialGradient>
  </defs>
  <rect width="1200" height="630" fill="url(#bgP)"/>
  <rect width="1200" height="630" fill="url(#glowP)"/>
  <g fill="none" stroke="#3a6bd0" stroke-opacity="0.13" stroke-width="2">
    <circle cx="1050" cy="115" r="70"/><circle cx="1050" cy="115" r="125"/><circle cx="1050" cy="115" r="185"/>
  </g>
  <g transform="translate(80,60)">
    <rect width="60" height="64" rx="14" fill="#fff"/>
    <g fill="#0033a0"><path d="M16 17 L46 15 L44.5 22 L15 24 Z"/><path d="M15 26 L45 24 L43.5 31 L14 33 Z"/><path d="M14 35 L44 33 L42.5 40 L13 42 Z"/><path d="M13 44 L43 42 L41.5 49 L12 51 Z"/></g>
  </g>
  <text x="156" y="88" fill="#fff" font-size="30" font-weight="800" letter-spacing="1">PM QUEST</text>
  <text x="157" y="114" fill="#9db8e8" font-size="13.5" font-weight="700" letter-spacing="3">PRODUCT MANAGEMENT</text>
  <text x="80" y="252" fill="#f2b705" font-size="23" font-weight="800" letter-spacing="4">O JOGO PARA QUEM QUER DOMINAR</text>
  <text x="78" y="342" fill="#ffffff" font-size="84" font-weight="800">Product Management</text>
  <text x="82" y="394" fill="#c8d8f0" font-size="26" font-weight="600">1000+ perguntas · níveis · badges · leaderboard · PT &amp; EN</text>
  <g transform="translate(80,432)">
    <rect width="246" height="64" rx="32" fill="#e2231a"/>
    <path d="M36 24 L36 40 L50 32 Z" fill="#fff"/>
    <text x="134" y="41" fill="#fff" font-size="25" font-weight="800" text-anchor="middle">Jogar grátis</text>
  </g>
  <g transform="translate(80,562)">
    <line x1="20" y1="0" x2="1020" y2="0" stroke="#20365c" stroke-width="8" stroke-linecap="round"/>
    <line x1="20" y1="0" x2="740" y2="0" stroke="url(#xpP)" stroke-width="8" stroke-linecap="round"/>
    <circle cx="20" cy="0" r="15" fill="#0033a0"/><circle cx="220" cy="0" r="15" fill="#0033a0"/>
    <circle cx="420" cy="0" r="15" fill="#0033a0"/><circle cx="620" cy="0" r="15" fill="#0033a0"/>
    <circle cx="820" cy="0" r="15" fill="#20365c"/>
    <circle cx="1020" cy="0" r="22" fill="#f2b705"/>
    <text x="1020" y="8" fill="#3a2a00" font-size="24" font-weight="900" text-anchor="middle">★</text>
  </g>
  <text x="1120" y="602" fill="#7f97bd" font-size="18" font-weight="600" text-anchor="end">pmquest-ten.vercel.app</text>
</svg>
